<?xml version="1.0" standalone="no"?>
<!DOCTYPE svg PUBLIC "-//W3C//DTD SVG 20010904//EN"
 "http://www.w3.org/TR/2001/REC-SVG-20010904/DTD/svg10.dtd">
<svg version="1.0" xmlns="http://www.w3.org/2000/svg"
 width="1024.000000pt" height="1024.000000pt" viewBox="0 0 1024.000000 1024.000000"
 preserveAspectRatio="xMidYMid meet">
<metadata>
Created by potrace 1.14, written by Peter Selinger 2001-2017
</metadata>
<g transform="translate(0.000000,1024.000000) scale(0.100000,-0.100000)"
fill="#000000" stroke="none">
<path d="M1545 9795 c-55 -42 -101 -80 -103 -85 -2 -6 -8 -10 -14 -10 -5 0
-27 -18 -49 -40 -22 -22 -41 -40 -44 -40 -4 0 -115 -111 -115 -116 0 -2 -17
-21 -38 -42 -21 -20 -58 -62 -82 -92 -23 -30 -47 -54 -51 -53 -5 2 -6 -4 -3
-12 4 -8 1 -15 -5 -15 -6 0 -18 -14 -27 -32 -9 -18 -23 -39 -31 -47 -8 -8 -26
-33 -40 -55 -14 -23 -31 -44 -37 -48 -6 -4 -7 -8 -2 -8 4 0 -3 -15 -16 -32
-14 -18 -35 -53 -49 -78 -13 -25 -28 -48 -32 -51 -5 -3 -9 -10 -9 -15 1 -5
-14 -40 -33 -79 -50 -106 -81 -182 -109 -270 -37 -111 -42 -130 -61 -215 -15
-68 -26 -116 -30 -130 -1 -3 -5 -34 -10 -70 -4 -36 -9 -74 -11 -85 -11 -77
-15 -110 -20 -185 -7 -101 -7 -418 0 -510 7 -86 15 -178 20 -215 2 -16 7 -57
11 -90 10 -83 27 -190 40 -255 3 -14 8 -41 11 -60 4 -19 9 -44 11 -55 3 -11 7
-33 10 -50 5 -30 5 -30 -14 -10 -108 113 -211 388 -238 635 -3 30 -8 66 -10
80 -14 80 -21 383 -12 548 2 52 0 81 -6 79 -7 -2 -86 -192 -96 -232 -1 -3 -3
-10 -6 -17 -15 -45 -46 -148 -51 -168 -8 -40 -12 -55 -14 -55 -1 0 -4 -11 -7
-25 -7 -38 -11 -55 -13 -57 -4 -4 -20 -91 -25 -133 -1 -8 -5 -28 -8 -45 -4
-16 -9 -52 -12 -80 -3 -27 -8 -70 -11 -95 -7 -63 -7 -347 0 -395 3 -22 8 -60
11 -85 6 -55 41 -245 45 -245 2 0 7 -19 15 -57 3 -14 21 -71 40 -125 20 -54
37 -102 39 -108 15 -48 113 -250 167 -345 100 -176 245 -378 424 -587 108
-126 412 -435 534 -543 34 -30 74 -66 90 -80 15 -14 56 -50 91 -80 35 -30 76
-67 92 -82 15 -15 28 -25 28 -22 0 3 22 -16 48 -43 82 -83 192 -182 308 -278
26 -22 69 -58 94 -80 26 -22 71 -60 100 -84 29 -25 58 -50 64 -55 6 -6 52 -45
101 -86 50 -41 92 -77 95 -80 3 -3 50 -44 105 -89 55 -46 105 -89 110 -95 6
-6 26 -24 45 -40 19 -16 69 -59 110 -96 41 -37 100 -89 130 -115 30 -26 62
-55 71 -64 8 -9 58 -54 109 -101 255 -231 513 -489 762 -764 81 -90 175 -200
301 -356 58 -72 242 -323 305 -417 148 -222 322 -514 322 -541 0 -5 4 -12 8
-14 10 -4 112 -208 112 -224 0 -8 3 -14 8 -14 4 0 13 -15 20 -32 8 -18 24 -55
36 -83 13 -27 38 -87 56 -133 19 -45 36 -82 40 -82 5 0 73 262 85 333 3 15 7
37 9 50 2 12 7 49 11 82 4 32 9 68 11 80 9 44 11 315 3 398 -14 146 -57 382
-79 432 -5 11 -18 49 -29 85 -20 69 -51 152 -78 210 -157 339 -287 543 -567
885 -163 199 -542 591 -897 929 -617 586 -1023 996 -1195 1206 -16 19 -34 40
-40 45 -47 43 -332 413 -431 561 -276 411 -480 841 -582 1229 -10 39 -30 108
-44 155 -40 139 -57 244 -87 565 -13 137 -13 424 -1 530 5 44 12 112 15 150 6
69 22 211 30 250 2 11 7 40 12 65 4 25 8 47 9 50 1 3 5 28 10 55 4 28 9 58 11
68 9 42 13 60 18 75 3 9 7 28 10 42 10 47 36 151 62 243 14 51 27 99 29 107
16 69 162 489 202 578 8 18 13 37 11 43 -2 5 -48 -25 -103 -66z"/>
<path d="M8470 9866 c0 -3 22 -51 49 -108 83 -174 100 -214 165 -381 137 -352
235 -693 275 -962 6 -38 15 -100 21 -137 43 -277 33 -823 -21 -1088 -57 -286
-143 -598 -193 -705 -8 -16 -29 -66 -46 -110 -70 -177 -213 -437 -365 -664
-83 -124 -170 -251 -194 -281 -23 -30 -61 -80 -84 -110 -144 -191 -556 -627
-777 -821 -46 -40 -89 -78 -96 -84 -110 -100 -333 -280 -539 -434 -82 -62
-158 -119 -168 -127 -15 -12 -17 -25 -12 -77 3 -34 8 -89 11 -122 6 -74 14
-149 19 -195 2 -19 7 -69 10 -110 4 -41 8 -86 9 -100 2 -14 7 -68 11 -120 4
-52 9 -108 11 -125 2 -16 7 -66 10 -110 4 -44 7 -81 8 -82 1 -1 69 64 152 145
319 314 572 512 1314 1027 173 121 335 234 360 252 25 18 63 46 85 61 78 55
457 343 499 379 12 10 61 52 110 93 457 383 780 787 936 1170 45 111 50 126
64 180 9 30 22 80 30 110 36 132 50 263 49 475 0 116 -3 224 -6 240 -4 17 -12
61 -17 100 -6 38 -17 99 -26 135 -9 36 -18 76 -20 90 -24 129 -233 674 -252
655 -3 -2 -6 -28 -7 -57 -5 -92 -26 -392 -30 -408 -1 -3 -5 -34 -9 -70 -5 -36
-10 -72 -11 -80 -1 -8 -8 -49 -15 -90 -6 -41 -18 -96 -25 -122 -8 -27 -11 -48
-8 -48 3 0 1 -6 -4 -12 -6 -7 -13 -28 -17 -47 -18 -97 -136 -331 -167 -331
-10 0 -5 83 6 101 3 4 7 23 9 43 3 19 10 61 15 93 6 32 13 76 16 98 3 22 8 51
10 65 2 14 7 57 11 95 3 39 8 72 9 75 5 7 19 296 19 375 0 87 -13 341 -18 356
-3 8 -7 43 -11 79 -3 36 -8 74 -10 85 -3 11 -6 34 -9 50 -8 53 -25 128 -46
210 -28 105 -26 97 -34 120 -5 11 -12 31 -16 45 -4 14 -11 34 -16 45 -4 11 -8
25 -9 30 -5 23 -116 267 -130 285 -6 8 -31 49 -55 90 -62 107 -147 235 -165
250 -8 7 -15 19 -15 26 0 8 -4 14 -8 14 -4 0 -22 18 -39 40 -79 104 -216 241
-354 355 -84 70 -249 190 -249 181z"/>
<path d="M37 5950 c-12 -32 -25 -114 -22 -132 2 -10 -1 -18 -6 -18 -11 0 -8
-497 4 -545 4 -16 9 -43 12 -60 45 -267 157 -536 334 -804 31 -46 61 -91 66
-100 6 -8 16 -21 23 -29 7 -8 25 -30 40 -50 15 -21 29 -39 32 -42 3 -3 30 -34
60 -70 67 -80 327 -341 435 -436 182 -162 585 -474 611 -474 8 0 12 -4 9 -10
-3 -5 0 -10 8 -10 7 0 23 -9 35 -20 12 -11 24 -20 27 -20 6 0 112 -77 133 -97
7 -7 17 -13 22 -13 5 0 15 -6 22 -12 25 -24 77 -58 88 -58 5 0 10 -4 10 -10 0
-5 4 -10 10 -10 9 0 35 -19 65 -47 8 -7 18 -13 24 -13 6 0 11 -4 11 -10 0 -5
6 -10 13 -10 10 0 28 -13 84 -60 7 -5 17 -10 24 -10 6 0 19 -8 28 -17 17 -19
45 -38 71 -50 8 -4 17 -9 20 -13 3 -3 21 -17 40 -30 19 -13 37 -27 40 -30 3
-3 21 -14 40 -24 19 -11 37 -22 40 -26 3 -3 22 -16 43 -29 21 -13 43 -29 50
-35 7 -7 23 -19 37 -26 13 -7 29 -17 34 -21 6 -5 26 -20 44 -35 17 -14 32 -22
32 -17 0 4 7 -1 15 -11 8 -11 15 -17 15 -13 0 8 14 -2 51 -36 10 -9 22 -17 25
-17 3 0 16 -8 29 -17 12 -10 33 -25 45 -33 12 -8 29 -21 36 -28 8 -7 14 -11
14 -8 0 6 28 -15 55 -41 8 -7 18 -13 24 -13 6 0 11 -4 11 -10 0 -5 7 -10 16
-10 8 0 12 -4 9 -10 -3 -5 0 -10 8 -10 8 0 22 -9 32 -20 10 -11 22 -17 26 -14
5 3 9 -2 9 -10 0 -9 3 -15 8 -14 13 4 82 -49 74 -57 -4 -5 -2 -5 4 -2 6 4 19
-2 29 -13 10 -11 24 -20 30 -20 7 0 15 -7 19 -15 3 -8 10 -15 16 -15 6 0 22
-11 36 -25 14 -14 28 -25 33 -25 4 0 22 -14 39 -31 18 -17 32 -29 32 -26 0 5
33 -21 71 -55 10 -10 19 -16 19 -14 0 4 59 -45 97 -81 13 -13 27 -23 30 -23 3
0 25 -17 48 -37 51 -46 103 -92 179 -158 120 -104 406 -383 406 -397 0 -4 7
-8 15 -8 8 0 15 -4 15 -9 0 -5 18 -28 40 -50 22 -22 40 -43 40 -46 0 -3 10
-16 23 -29 20 -21 87 -98 104 -121 5 -6 22 -26 38 -46 17 -20 39 -48 49 -63
10 -14 22 -26 27 -26 9 0 7 20 -4 38 -5 6 -5 12 0 12 4 0 3 4 -3 8 -5 4 -21
34 -34 67 -33 83 -169 356 -188 378 -8 9 -12 17 -8 17 4 0 -9 25 -29 55 -19
31 -35 60 -35 65 0 6 -4 10 -10 10 -5 0 -10 5 -10 11 0 6 -14 30 -30 54 -17
24 -30 48 -30 54 0 6 -4 11 -10 11 -5 0 -10 6 -10 13 0 6 -18 35 -40 62 -22
28 -40 54 -40 58 0 8 -11 23 -42 58 -10 10 -15 19 -12 19 7 0 -68 94 -78 98
-5 2 -8 8 -8 14 0 5 -6 15 -12 22 -7 7 -24 28 -38 46 -14 19 -34 44 -45 56
-11 12 -33 39 -50 60 -16 20 -42 50 -57 66 -15 15 -25 28 -23 28 3 0 -18 23
-45 51 -28 28 -50 53 -50 55 0 2 -33 37 -74 79 -41 41 -73 75 -71 75 2 0 -22
25 -52 55 -31 30 -59 55 -62 55 -12 0 -39 38 -33 45 4 4 2 5 -3 3 -6 -1 -36
23 -68 55 -32 31 -63 57 -68 57 -6 0 -7 5 -4 10 3 6 1 10 -4 10 -13 0 -43 23
-98 78 -24 23 -43 40 -43 37 0 -2 -14 9 -30 25 -17 17 -35 30 -40 30 -6 0 -10
8 -10 17 0 9 -3 13 -7 10 -3 -4 -17 5 -30 19 -12 14 -23 21 -23 17 0 -4 -4 -3
-8 2 -7 10 -120 107 -174 150 -47 37 -122 100 -139 117 -10 9 -32 24 -48 33
-17 8 -31 21 -31 27 0 6 -3 9 -6 6 -3 -4 -19 8 -35 24 -16 17 -29 27 -29 22 0
-5 -11 4 -25 19 -14 15 -29 27 -33 27 -4 0 -18 10 -32 23 -14 12 -43 36 -65
52 -22 17 -42 32 -45 35 -3 3 -21 17 -40 30 -19 13 -43 33 -52 44 -10 10 -18
15 -18 10 -1 -5 -9 1 -19 13 -10 12 -21 19 -25 16 -3 -3 -8 2 -12 11 -3 9 -10
14 -14 11 -5 -3 -12 4 -15 16 -4 11 -9 18 -12 15 -6 -5 -75 43 -81 57 -2 4 -8
7 -14 7 -5 0 -15 6 -23 13 -7 6 -30 26 -50 42 -21 17 -44 36 -51 43 -8 7 -14
10 -14 5 0 -4 -4 -3 -8 3 -4 6 -25 23 -46 38 -21 14 -36 26 -32 26 4 0 1 7 -8
15 -8 8 -17 15 -20 15 -3 0 -16 9 -28 19 -36 30 -142 114 -173 136 -15 11 -32
25 -39 30 -6 6 -74 62 -151 125 -77 63 -142 117 -145 120 -3 3 -39 34 -79 70
-375 327 -656 650 -852 981 -67 113 -179 338 -179 359 0 6 -5 18 -11 28 -6 9
-28 69 -49 132 -21 63 -40 108 -43 100z"/>
<path d="M10145 5837 c-134 -278 -264 -493 -443 -735 -206 -279 -504 -573
-816 -805 -50 -38 -98 -74 -106 -80 -8 -7 -100 -68 -205 -135 -104 -68 -208
-137 -230 -152 -31 -22 -214 -135 -325 -200 -122 -72 -172 -101 -201 -117 -48
-26 -353 -215 -359 -223 -3 -4 -12 -9 -20 -13 -14 -6 -118 -78 -170 -118 -14
-10 -43 -33 -65 -49 -193 -148 -374 -323 -525 -510 l-60 -75 5 -260 c5 -230
11 -355 18 -362 1 -1 21 15 43 35 22 20 64 57 94 82 29 25 58 50 64 55 6 6 47
37 91 70 44 33 85 65 92 70 56 46 112 85 121 85 6 0 12 3 14 8 6 14 477 322
493 322 2 0 39 22 82 48 43 26 114 68 158 92 44 24 100 54 125 68 25 14 65 36
90 50 25 13 74 41 110 62 142 81 269 150 278 150 6 0 12 4 14 8 2 4 26 18 53
31 58 27 300 172 465 279 316 205 605 454 775 667 120 149 238 349 295 496 11
30 25 63 30 74 25 53 87 314 92 388 1 20 6 37 10 37 10 0 11 554 1 564 -5 4
-8 11 -9 14 -12 129 -17 173 -23 177 -4 2 -29 -42 -56 -98z"/>
<path d="M7425 5548 c-136 -13 -309 -51 -571 -127 l-71 -20 -54 20 c-30 12
-61 23 -69 25 -162 42 -243 58 -340 69 -44 6 -246 6 -282 1 -168 -24 -319 -73
-432 -141 -32 -19 -60 -35 -63 -35 -5 0 -60 -41 -102 -75 -14 -11 -54 -48 -90
-82 -56 -54 -75 -65 -145 -87 -192 -59 -335 -86 -456 -86 -41 0 -104 7 -139
15 -35 9 -66 14 -68 11 -8 -8 27 -65 59 -96 62 -59 146 -90 246 -90 46 0 62
-4 62 -14 0 -13 -107 -48 -205 -65 -74 -14 -252 -11 -315 4 -69 16 -181 54
-197 67 -51 40 -2 -85 70 -177 85 -110 243 -205 417 -248 104 -27 213 -46 275
-50 39 -2 40 -3 40 -37 -1 -41 -14 -154 -20 -172 -2 -7 -6 -29 -9 -48 -18
-121 -90 -308 -159 -410 -81 -121 -234 -216 -354 -219 -22 -1 -34 -31 -13 -31
17 0 301 -289 373 -380 70 -88 203 -280 249 -360 198 -345 350 -828 393 -1245
4 -33 8 -76 11 -95 18 -148 23 -482 11 -733 -6 -133 -5 -157 7 -157 8 0 16 3
18 8 2 4 23 18 48 31 153 82 344 228 476 363 146 149 249 303 324 483 60 146
98 295 125 490 10 72 13 495 5 595 -4 47 -10 119 -14 160 -5 66 -18 205 -30
309 -3 20 -7 70 -11 111 -3 41 -8 102 -11 135 -17 187 -21 281 -18 470 1 116
5 226 8 245 3 19 8 58 12 85 38 296 163 594 344 815 123 151 327 327 504 435
131 80 428 235 451 235 4 0 21 6 38 14 18 8 50 22 72 31 30 12 36 18 25 24
-54 29 -267 43 -425 29z m-1137 -266 c22 -8 13 -20 -35 -47 -74 -41 -235 -77
-248 -55 -12 20 81 87 133 96 14 3 29 7 32 10 5 6 99 3 118 -4z"/>
<path d="M804 3341 c3 -4 8 -23 10 -42 3 -19 7 -44 10 -55 2 -12 7 -38 10 -59
4 -20 8 -40 11 -44 2 -4 6 -18 8 -32 8 -41 12 -54 17 -59 3 -3 13 -27 22 -55
21 -66 42 -119 48 -125 3 -3 16 -25 29 -50 25 -46 91 -148 120 -183 30 -37
166 -172 199 -197 19 -14 41 -32 51 -41 49 -44 403 -247 446 -255 6 -1 53 -20
105 -42 122 -52 218 -89 253 -97 15 -4 30 -11 33 -16 3 -5 14 -9 25 -9 10 0
19 -5 19 -10 0 -6 3 -9 8 -8 10 3 73 -13 92 -23 8 -4 58 -23 110 -42 52 -19
104 -38 115 -43 11 -4 25 -8 30 -10 23 -6 295 -114 340 -134 190 -86 453 -224
475 -249 3 -3 17 -12 33 -20 15 -8 27 -18 27 -23 0 -4 5 -8 11 -8 34 0 327
-263 402 -360 22 -29 27 -32 27 -15 0 30 -33 120 -70 190 -32 61 -131 214
-153 237 -7 7 -22 26 -34 41 -49 63 -273 303 -273 292 0 -2 -24 19 -54 48 -63
61 -80 76 -206 180 -52 44 -104 86 -115 96 -88 74 -529 391 -544 391 -5 0 -11
3 -13 8 -3 7 -155 109 -308 207 -41 26 -86 55 -100 63 -14 9 -36 23 -51 32
-43 26 -238 144 -264 160 -40 25 -245 144 -273 159 -15 8 -28 18 -30 23 -2 4
-8 8 -13 8 -5 0 -41 18 -80 40 -39 22 -73 40 -75 40 -2 0 -4 -9 -4 -20 0 -11
5 -20 10 -20 6 0 10 -8 10 -19 0 -10 11 -30 25 -45 14 -15 25 -30 25 -35 0
-12 155 -161 234 -225 22 -17 50 -41 63 -53 13 -12 23 -20 23 -18 0 2 47 -31
104 -73 57 -42 114 -84 126 -92 12 -8 33 -23 45 -32 13 -10 28 -18 34 -18 6 0
11 -4 11 -10 0 -5 7 -10 15 -10 8 0 15 -3 15 -7 0 -5 23 -21 51 -37 36 -20 48
-31 40 -39 -7 -7 -17 -7 -33 0 -13 6 -72 30 -133 54 -60 24 -113 47 -116 52
-3 5 -12 9 -20 11 -22 3 -93 39 -101 50 -4 6 -8 7 -8 2 0 -4 -11 -1 -25 8 -46
30 -90 55 -122 70 -18 8 -33 19 -33 24 0 6 -10 12 -23 16 -12 3 -32 14 -44 26
-12 11 -27 20 -33 20 -5 0 -10 5 -10 10 0 6 -4 10 -10 10 -9 0 -36 19 -66 48
-8 7 -14 10 -14 5 0 -4 -11 5 -25 21 -14 16 -25 26 -25 22 0 -4 -18 11 -40 33
-22 22 -40 36 -40 33 -1 -4 -9 3 -19 15 -10 12 -21 19 -25 16 -3 -4 -6 1 -6
10 0 10 -5 17 -11 17 -13 0 -229 223 -229 237 0 6 -40 43 -47 43 -2 0 -2 -4 1
-9z"/>
<path d="M9316 3333 c-7 -21 -225 -244 -311 -318 -31 -27 -63 -56 -71 -62 -7
-7 -17 -13 -22 -13 -6 0 -12 -6 -15 -13 -3 -7 -24 -26 -48 -42 -24 -17 -45
-33 -47 -37 -2 -5 -8 -8 -13 -8 -5 0 -19 -9 -32 -20 -71 -62 -350 -216 -542
-300 -112 -49 -145 -58 -145 -42 0 7 80 60 112 74 9 4 26 15 37 25 12 10 24
16 28 15 3 -2 9 0 12 5 3 5 46 36 96 69 49 32 99 67 111 78 12 10 25 17 29 16
4 -1 11 2 14 7 3 5 35 31 71 58 35 28 78 61 95 75 52 43 195 191 195 203 0 6
6 18 13 26 21 26 39 89 30 105 -7 13 -32 4 -141 -49 -72 -36 -135 -65 -138
-64 -4 0 -10 -3 -13 -8 -3 -5 -40 -25 -81 -46 -79 -39 -198 -102 -265 -141
-22 -13 -58 -34 -80 -46 -364 -202 -801 -501 -1044 -715 -149 -131 -262 -242
-356 -351 -33 -38 -63 -71 -66 -74 -19 -16 -154 -208 -196 -280 -75 -128 -163
-323 -163 -362 0 -6 37 26 83 72 147 149 335 289 572 427 131 76 445 232 620
308 61 27 139 61 175 78 36 16 79 35 95 42 216 96 310 137 323 145 10 5 73 36
142 69 124 60 240 121 250 131 3 3 21 14 40 24 49 27 210 135 227 152 8 8 18
14 22 14 8 0 138 126 188 183 68 76 173 252 173 290 0 7 4 17 9 22 23 25 62
295 42 295 -5 0 -12 -8 -15 -17z"/>
</g>
</svg>
